/* XPM */
static char *occ_icon___[] = {
/* columns rows colors chars-per-pixel */
"48 48 75 1",
"  c black",
". c #6B0008",
"X c #7B0010",
"o c #420039",
"O c #731821",
"+ c #6B0039",
"@ c #004A39",
"# c #734A00",
"$ c #634A18",
"% c #4A6300",
"& c #526B10",
"* c #7B6B00",
"= c #637B31",
"- c #00395A",
"; c #6B005A",
": c #730863",
"> c #007B5A",
", c #004263",
"< c #005273",
"1 c #9C0018",
"2 c #AD0018",
"3 c #AD0821",
"4 c #BD0021",
"5 c #843139",
"6 c #DE0029",
"7 c #845200",
"8 c #8C6318",
"9 c #B57300",
"0 c #BD7300",
"q c #A56B39",
"w c #A5005A",
"e c #AD005A",
"r c #94007B",
"t c #BD006B",
"y c #CE0073",
"u c #E7007B",
"i c #84637B",
"p c #6B8C08",
"a c #739C08",
"s c #638410",
"d c #7B9C18",
"f c #7BA510",
"g c #009473",
"h c #00A57B",
"j c #BDA500",
"k c #BDAD08",
"l c #BD8431",
"z c #EF9C00",
"x c #9CCE10",
"c c #9CC618",
"v c #9CCE29",
"b c #E7CE00",
"n c #F7DE00",
"m c #EFDE18",
"M c #948C4A",
"N c #849463",
"B c #D6AD63",
"V c #005A8C",
"C c #006BA5",
"Z c #007BA5",
"A c #007BBD",
"S c #E70884",
"D c #21A58C",
"F c #008CBD",
"G c #638CA5",
"H c #6BA5BD",
"J c #00B5EF",
"K c gray61",
"L c #B59CAD",
"P c #84A5AD",
"I c gray68",
"U c #ADB5BD",
"Y c #BDBDB5",
"T c #CEC694",
"R c None",
/* pixels */
"RRRRRRRRRRRRRRRRRRRRRRRRRRRYzzzBRRRRRRRRRRRRRRRR",
"RRRRRRRRRRRRRRRRRRRRRRRRRRY#9z09lRRRRRRRRRRRRRRR",
"RRRRRRRRRRRRRRRRRRRRLrrrrYY##799lYJJJJJYRRRRRRRR",
"RRRRRRRRRRRRRRRRRRRKorrr;:Y##799Y<<JJJFZRRRRRRRR",
"RRRRRRRRRRRRRRHAYRRioo:;;:RRR8YRR<<<<FFZRYhhhDYR",
"RRRRRRRRRRRVAAAAAVRioo;:;;RRRRRRR<<<<FFF@@@hhhg>",
"RRRRRRRRRRR--ACVVVRRYo;;YRRRRRRRRRY<<ZYR@@@@@>>>",
"RRRYuuuRRRR--<VVVVRRRRYRRRRRRRRRRRRRRRRR@@@@@>>>",
"YSuSSuSuYRR--,VVVVRRRRRRRRRRRRRRRRRRRRRR@@@@@>>>",
"+SuuuyewYRRR-,VVYRRRRRRRRRRRRRRRRRRRRRRRRRY@@>PR",
"++uwwtwwYRRRRGYRRRRRRRRR    RRRRRR   RRRRRR   RR",
"++wteeetYcccvRRRRRRRRRR      YRRR     RRRR     R",
"++tewqcccxcccxYRRRRRRR   RR   RR       RR       ",
"Y+wt$cccxccccfaRRRRRRR  RRRR  R   RRR  R   RRR  ",
"RYeY=%cxcccaaadRRRRRR  RRRRRR    RRRRRR   RRRRRR",
"RRRRN%%cfaaaaaaRRRRRR  RRRRRR    RRRRRR   RRRRRR",
"RRRRN%%saaaaaaaRRRYTR  RRRRRR    RRRRRR   RRRRRR",
"RRRRN&%padadadaRRnnnmR  RRRR  R   RRR  R   RRR  ",
"RRRRR%&sdaaddYRnnnnnnn   RR   RR       RR       ",
"RRRRRR%saaaYYnnnnnnnnnn      RRRR     RRRR     R",
"RRRRRRYsaYRYnnnnnnnnnnnj    RRRRRR   RRRRRR   RR",
"RRRRRRRYRRRY*nnnnnnnnbjjRRRRRRRRRRRRRRRRRRRRRRRR",
"RRRRRRRRRRRY**nnnnnbjjjjRRRRRRRRRRRRRRRRRRRRRRRR",
"RRRRRRRRRRRY***nnnjjjjjjRRRRRRRRRRRRRRRRRRRRRRRR",
"RRRRRRRRRRRY****bjjjjjjjRRRRR3IRRRRRRRRRRRRRRRRR",
"RRRRRRRRRRRY****jjjjjjjjRRRR22..RRRRRRRRRRRRRRRR",
"RRRRRRRRRRRY****jjjjjjjkRR2223...YRRRRRRRRRRRRRR",
"RRRRRRRRRRRRR***jjjjjjYRR23133.....RRRRRRRRRRRRR",
"RRRRRRRRRRRRRM**jjjjjYRR313231......RRRRRRRRRRRR",
"RRRRRRRRRRRRRRY*jjjYRR22313233........RRRRRRRRRR",
"RRRRRRRRRRRRRRR*jjRRRR32323133.......XRRRRRRRRRR",
"RRRRRRRRRRRRRRRRjRRRRR.2322136.......3RRRRRRRRRR",
"RRRRRRRRRRRRRRRRRRRRRR..2322666.....31RRRRRRRRRR",
"RRRRRRRRRRRRRRRRRRRRRR...21666666.X232RRRRRRRRRR",
"RRRRRRRRRRRRRRRRRRRRRR....666666641122RRRRRRRRRR",
"RRRRRRRRRRRRRRRRRRRRRR.....66666633231RRRRRRRRRR",
"RRRRRRRRRRRRRRRRRRRRRR......6666133231RRRRRRRRRR",
"RRRRRRRRRRRRRRRRRRRRRR.......662321323RRRRRRRRRR",
"RRRRRRRRRRRRRRRRRRRRRR........22312323RRRRRRRRRR",
"RRRRRRRRRRRRRRRRRRRRRRR.......2121222RRRRRRRRRRR",
"RRRRRRRRRRRRRRRRRRRRRRRY......223211YRRRRRRRRRRR",
"RRRRRRRRRRRRRRRRRRRRRRRRO.....21311YRRRRRRRRRRRR",
"RRRRRRRRRRRRRRRRRRRRRRRRR.....22323RRRRRRRRRRRRR",
"RRRRRRRRRRRRRRRRRRRRRRRRRR....331URRRRRRRRRRRRRR",
"RRRRRRRRRRRRRRRRRRRRRRRRRRR...221RRRRRRRRRRRRRRR",
"RRRRRRRRRRRRRRRRRRRRRRRRRRRY..33YRRRRRRRRRRRRRRR",
"RRRRRRRRRRRRRRRRRRRRRRRRRRRRY.3YRRRRRRRRRRRRRRRR",
"RRRRRRRRRRRRRRRRRRRRRRRRRRRRR5YRRRRRRRRRRRRRRRRR"
};
