/* XPM */
static char * occ_icon_64_xpm[] = {
"64 64 193 2",
"  	c None",
". 	c #D4A449",
"+ 	c #E3A42B",
"@ 	c #EAA115",
"# 	c #EF9C00",
"$ 	c #8E7442",
"% 	c #754B00",
"& 	c #8F5D00",
"* 	c #B47301",
"= 	c #CD8400",
"- 	c #BF7A00",
"; 	c #AF9A6B",
"> 	c #A94C8C",
", 	c #A0368C",
"' 	c #981281",
") 	c #93037B",
"! 	c #9F308A",
"~ 	c #9E6400",
"{ 	c #2CB4E0",
"] 	c #0FB3E8",
"^ 	c #30B6E0",
"/ 	c #67B6CE",
"( 	c #520747",
"_ 	c #6D025C",
": 	c #780365",
"< 	c #8B0075",
"[ 	c #8F5082",
"} 	c #7A5411",
"| 	c #B29151",
"1 	c #46798C",
"2 	c #086593",
"3 	c #0077AA",
"4 	c #0088B7",
"5 	c #00ABE4",
"6 	c #009ED2",
"7 	c #0092C4",
"8 	c #2C8FB9",
"9 	c #520F47",
"0 	c #420039",
"a 	c #BCB284",
"b 	c #33728B",
"c 	c #005274",
"d 	c #035578",
"e 	c #29AA89",
"f 	c #368E76",
"g 	c #00A37A",
"h 	c #5FA09F",
"i 	c #007ABC",
"j 	c #096CA2",
"k 	c #9A688E",
"l 	c #0980B5",
"m 	c #AFB0AA",
"n 	c #01664D",
"o 	c #026950",
"p 	c #019470",
"q 	c #013A5B",
"r 	c #004368",
"s 	c #005D91",
"t 	c #005A8C",
"u 	c #658EA1",
"v 	c #702C56",
"w 	c #751666",
"x 	c #82A1A1",
"y 	c #558D8B",
"z 	c #004A39",
"A 	c #027B5C",
"B 	c #D9328C",
"C 	c #E7027D",
"D 	c #E60882",
"E 	c #D64995",
"F 	c #007459",
"G 	c #D10272",
"H 	c #005785",
"I 	c #7798A6",
"J 	c #2D6166",
"K 	c #055844",
"L 	c #7D0143",
"M 	c #B80163",
"N 	c #B0005F",
"O 	c #B76D90",
"P 	c #618378",
"Q 	c #507469",
"R 	c #195A4A",
"S 	c #6B0039",
"T 	c #AC005D",
"U 	c #A5C642",
"V 	c #49504C",
"W 	c #555552",
"X 	c #252524",
"Y 	c #000000",
"Z 	c #383836",
"` 	c #40403E",
" .	c #8E094A",
"..	c #AD0D5A",
"+.	c #AD3C4B",
"@.	c #90A84C",
"#.	c #A3C737",
"$.	c #9CC915",
"%.	c #4D4D4A",
"&.	c #6A6A66",
"*.	c #343433",
"=.	c #141413",
"-.	c #1C1C1C",
";.	c #0A0A0A",
">.	c #781C4D",
",.	c #991022",
"'.	c #AA234F",
").	c #AD4A4F",
"!.	c #A39033",
"~.	c #90B216",
"{.	c #2C2C2B",
"].	c #181817",
"^.	c #6F8A0C",
"/.	c #98C515",
"(.	c #8AB511",
"_.	c #7DA70D",
":.	c #94AB54",
"<.	c #8B8B87",
"[.	c #3D3D3C",
"}.	c #5A5A58",
"|.	c #62625E",
"1.	c #A1346D",
"2.	c #8B8D6E",
"3.	c #4C6503",
"4.	c #59730D",
"5.	c #759C0C",
"6.	c #787874",
"7.	c #484845",
"8.	c #526C07",
"9.	c #949490",
"0.	c #454543",
"a.	c #4F6809",
"b.	c #E9D62E",
"c.	c #A0A496",
"d.	c #789D13",
"e.	c #99AD62",
"f.	c #EDD712",
"g.	c #F7DE00",
"h.	c #F3DC0D",
"i.	c #84A22F",
"j.	c #DACD5C",
"k.	c #906A74",
"l.	c #A6B27E",
"m.	c #5D5A3B",
"n.	c #696966",
"o.	c #647A24",
"p.	c #B5AD4B",
"q.	c #E7D001",
"r.	c #C6B31E",
"s.	c #64614E",
"t.	c #938942",
"u.	c #8A7900",
"v.	c #C1A900",
"w.	c #D4BC00",
"x.	c #CAB200",
"y.	c #BDA500",
"z.	c #7B6B00",
"A.	c #978400",
"B.	c #ECD400",
"C.	c #8E2D37",
"D.	c #AC273A",
"E.	c #AA031C",
"F.	c #980216",
"G.	c #6B0008",
"H.	c #700C13",
"I.	c #7F2D32",
"J.	c #827413",
"K.	c #BDA818",
"L.	c #BDAD38",
"M.	c #AC0B22",
"N.	c #A6021A",
"O.	c #9B0419",
"P.	c #710C14",
"Q.	c #8A4548",
"R.	c #B13C4B",
"S.	c #AE132A",
"T.	c #8E5255",
"U.	c #897C27",
"V.	c #BAB677",
"W.	c #B4031E",
"X.	c #7B272D",
"Y.	c #83000F",
"Z.	c #C40122",
"`.	c #890011",
" +	c #7B000D",
".+	c #AF3746",
"++	c #73010B",
"@+	c #DE0029",
"#+	c #D30026",
"$+	c #B7777C",
"%+	c #B6898C",
"&+	c #A17C7B",
"*+	c #75122B",
"                                                                                                                                ",
"                                                                                                                                ",
"                                                                                                                                ",
"                                                                                                                                ",
"                                                                                                                                ",
"                                                                                                                                ",
"                                                                                                                                ",
"                                                                                                                                ",
"                                                                        . + @ # + + .                                           ",
"                                                                      $ % & * = = - * ;                                         ",
"                                                      > , ' ) ) ! ,   $ % % % ~ * * - ;   { ] ] ] ] ^ ^ /                       ",
"                                                    ( _ : ) ) < : : [ ; $ } % ~ * - |   1 2 3 4 5 5 6 7 8                       ",
"                                    8 8 8 8         9 0 0 ( _ _ _ _ [         | a       b c c c d 4 4 4 8     e f g g g e h     ",
"                              2 i i i i i i 3 j     9 0 0 ( _ _ _ : k                   1 c c c c 3 4 l 8 m n o p p p g g g p f ",
"                              q r s j j 2 t t t u     k v 9 w [ k                         x y b d 3 8 /     z z z z z n A A p f ",
"        B B B C D E           q q q t t t t t s u                                                           z z z z z z n A F f ",
"B B C C C C C C D D G         r q r H t t t s 2 I                                                           J K z z z z o A A y ",
"L G C C C C G G M M N O         J q H t b u I                                                                   P Q R z o f h   ",
"S S T G N N T T M T T O     U       u                                 V W                 W X Y Z W             ` X X V Q       ",
"S S  ...N N T T T ..+.@.#.$.$.$.U                                 X %.&.&.` *.&.        =.Y Y Y Y Y -.        =.Y Y Y Y ;.X     ",
">.S ,.T T N '.).!.~.$.$.$.$.$.$.$.$.#.                          {.            `       =.Y Y Y Y Y Y Y =.    ;.Y Y Y Y Y Y Y ].  ",
"  v _ T ....^.$.$.$.$.$.$.$.$.$./.(._.:.                      {.                {.  *.Y Y Y W <.[.Y Y Y W *.Y Y Y }.<.Z Y Y Y |.",
"    1.1.> 2.3.4.(.$.$.$././.(.(.5.5._.:.                    *.}.                Z 6.-.Y Y {.      {.=.=.[.=.Y Y [.      X ].].7.",
"            8.3.8.(.(.(._._.5.5.5.5.5.:.                    ` 9.                W 0.;.Y Y W               Y Y Y |.              ",
"            a.3.3.4.5.5.5.5.5.5.5.5.5.:.          b.        0.c.                  [.Y Y Y 7.              Y Y Y W               ",
"            a.3.3.8.5.5.5.5.5.5.5.d.d.e.    b.f.g.g.h.b.    7.&.                0.6.].Y Y 7.      {.Y Y {.;.Y Y W       {.Y Y   ",
"            2.8.a.8.5.5.5.5.5.d.i.:.a j.h.g.g.g.g.g.g.g.h.b.k.[.                X c.*.Y Y =.      ;.Y Y Z {.Y Y ].      Y Y Y [.",
"              2.4.8.d.d.5.d.@.l.j.b.h.g.g.g.g.g.g.g.g.g.g.g.b.m.%.            0.n.  &.Y Y Y ;.;.;.Y Y Y 6.n.Y Y Y ;.;.;.Y Y Y <.",
"                c.o.5.i.e.    p.q.g.g.g.g.g.g.g.g.g.g.g.g.g.q.r.s.X         {.|.      &.Y Y Y Y Y Y Y n.    }.Y Y Y Y Y Y ;.&.  ",
"                              t.u.v.g.g.g.g.g.g.g.g.g.g.w.x.y.y.a   0.[.[.%.              ` X ].-.0.          6.[.-.].-.%.      ",
"                              t.z.z.A.g.g.g.g.g.g.B.w.v.v.v.y.y.                                                                ",
"                              t.z.z.z.u.q.g.g.h.x.v.v.y.y.y.y.y.                                                                ",
"                              t.z.z.z.z.z.x.x.y.y.y.y.y.y.y.y.y.              ,.C.                                              ",
"                              t.z.z.z.z.u.A.y.y.y.y.y.y.y.y.y.y.          D.E.F.G.H.I.                                          ",
"                              e.J.z.z.z.z.A.y.y.y.y.y.y.v.y.K.L.      D.M.N.N.O.G.G.G.P.Q.                                      ",
"                                  z.z.z.z.A.y.y.y.y.y.y.v.p.      R.E.M.N.E.N.F.G.G.G.G.G.H.Q.                                  ",
"                                    t.z.z.u.y.y.y.y.v.L.a     +.S.E.E.E.N.E.N.O.G.G.G.G.G.G.G.P.T.                              ",
"                                      U.z.A.y.v.y.L.V.      S.E.E.E.E.M.N.W.E.O.G.G.G.G.G.G.G.G.G.X.                            ",
"                                        U.A.y.L.V.        ,.M.E.E.E.W.E.E.E.E.O.G.G.G.G.G.G.G.G.G.G.D.                          ",
"                                          !.p.            P.Y.N.E.E.E.E.N.E.W.Z.`.G.G.G.G.G.G.G. +N..+                          ",
"                                                          H.G.++F.E.N.N.E.Z.@+@+@+Z.Y.G.G.G.++`.E.N.R.                          ",
"                                                          H.G.G.G.Y.N.E.#+@+@+@+@+@+@+O.G.++F.E.E.E.+.                          ",
"                                                          H.G.G.G.G.Y.#+@+@+@+@+@+@+@+@+W.N.N.N.E.E.).                          ",
"                                                          H.G.G.G.G.G. +W.@+@+@+@+@+@+Z.N.N.N.N.E.E.R.                          ",
"                                                          H.G.G.G.G.G.G.++N.@+@+@+@+Z.N.N.N.N.N.E.E.R.                          ",
"                                                          H.G.G.G.G.G.G.G.G.`.#+#+W.N.E.E.E.N.E.E.E.).                          ",
"                                                          X.G.G.G.G.G.G.G.G.G.++W.N.E.W.E.E.E.M.E.E.$+                          ",
"                                                            Q.++G.G.G.G.G.G.G.++N.N.E.E.M.E.E.M.S.$+                            ",
"                                                              Q.G.G.G.G.G.G.G.++N.E.E.W.E.E.E.M.$+                              ",
"                                                                Q.H.G.G.G.G.G.G.N.N.E.E.E.M.S.%+                                ",
"                                                                  &+H.G.G.G.G.++N.N.E.E.M.D.%+                                  ",
"                                                                    T.H.G.G.G.++E.E.N.N.).                                      ",
"                                                                      &+*+G.G.++E.E.N.+.                                        ",
"                                                                          X.G.++E.E.R.                                          ",
"                                                                            I.++E.).                                            ",
"                                                                              C.).                                              ",
"                                                                                                                                ",
"                                                                                                                                ",
"                                                                                                                                ",
"                                                                                                                                ",
"                                                                                                                                ",
"                                                                                                                                ",
"                                                                                                                                ",
"                                                                                                                                "};
